<svg xmlns="http://www.w3.org/2000/svg" width="225" height="144" viewBox="-10.49 -14.465 225 144" enable-background="new -10.49 -14.465 225 144"><path d="M67.213 110.457h75.068v14.986H67.214zM61.163 32.93h9.7v48.996h-9.7zM70.863 81.926h9.698v9.693h-9.697zM70.863 23.13h9.698v9.702h-9.697zM80.56 91.72h48.495v9.7H80.56zM80.56 13.336h48.495v9.698H80.56zM129.054 23.13h9.696v9.702h-9.696zM138.75 82.192h9.704v-49.26h-9.703v48.994h-9.696v9.693h9.697zM37.356 19.596h14.99v75.562h-14.99zM52.345 95.313h14.988v14.99H52.345zM52.345 4.45h14.988v14.99H52.345zM67.333-10.69h74.948V4.3H67.334zM142.28 95.313h14.99v14.99h-14.99zM142.28 4.45h14.99v14.99h-14.99zM157.27 19.596h14.986v75.562H157.27zM16.43 22.052h-5.894v-23.75h-5.89v23.75h-5.893v-23.75H-7.14V39.91h5.893v5.894h5.892v53.648h5.89V45.475h5.895V39.91h5.89V-1.7h-5.89zM205.845 17.505V5.72h-5.894V-.17h-11.78V100.2h5.89V52.71h5.89v-5.88h5.895v-5.89h5.89V17.502z"/></svg>