<svg xmlns="http://www.w3.org/2000/svg" width="95.478" height="159.799" viewBox="0 0 95.478 159.799"><path d="M21.74 85.353h10.354v10.352H21.74zM32.094 32.96H83.85V1.693H73.496V22.608H11.394V32.96H21.74zM42.442 85.353h10.353v10.352H42.442zM73.497 74.7V43.526H21.74v31.266H73.497zM63.145 85.353h10.353v10.352H63.145zM83.85 33.068v114.82H94.2V33.066zM11.394 137.433V33.067H1.04v114.82h10.354zM21.74 106.163h10.354v10.355H21.74zM21.74 127.08h10.354v10.353H21.74zM42.442 106.163h10.353v10.355H42.442zM42.442 127.08h10.353v10.353H42.442zM63.145 106.163h10.353v10.355H63.145zM63.145 127.08h10.353v10.353H63.145zM63.145 147.993H11.393v10.352H83.85v-10.352H73.496z"/></svg>