<?xml version="1.0" encoding="iso-8859-1"?>
<!-- Generator: Adobe Illustrator 16.0.0, SVG Export Plug-In . SVG Version: 6.00 Build 0)  -->
<!DOCTYPE svg PUBLIC "-//W3C//DTD SVG 1.1//EN" "http://www.w3.org/Graphics/SVG/1.1/DTD/svg11.dtd">
<svg version="1.1" id="Capa_1" xmlns="http://www.w3.org/2000/svg" xmlns:xlink="http://www.w3.org/1999/xlink" x="0px" y="0px"
	 width="556.945px" height="556.945px" viewBox="0 0 556.945 556.945" style="enable-background:new 0 0 556.945 556.945;"
	 xml:space="preserve">
<g>
	<path d="M90.466,465.709l-3.244-0.031c-28.446,0.018-56.8,0.012-85.246,0c-0.379,0-0.618-0.037-0.991-0.08
		C0.367,465.525,0,468.205,0,471.584c0,16.916,0,33.83,0,50.752c0,3.379,2.644,6.658,6.022,6.652
		c26.708-0.043,53.317,0.404,80.025,0.404c1.053,0,2.105,0,3.25,0c1.799,0,2.503-3.824,2.503-7.203c0-18.066,0-35.912,0-54.094
		C91.8,465.893,90.466,465.709,90.466,465.709z"/>
	<path d="M465.119,408.578c0-3.379-1.174-7.705-3.928-7.705c-1.672,0-3.33,0-4.988,0c-10.344,0-20.686,0.771-31.029,0.801
		c-2.465,0.008-4.406,0.338-4.381-3.127c0.129-18.861,0.08-37.521,0.109-56.383c0-0.312,0.068-0.527,0.154-0.875
		c0.127-0.533,1.053-0.998,2.055-1.084c0.619-0.055,1.225-0.072,1.824-0.072c44.113-0.014,86.697,0,130.803,0.012
		c0.453,0,1.182,0.299,1.182-5.875c0-58.612,0-117.223,0-175.84c0-3.384,0.318-8.477-3.061-8.477c-11.646,0-23.328,0-35.324,0
		c-3.379,0-4.455-0.385-4.455-3.764c0-16.022,0-32.136,0-48.599c0-3.378-4.406-8.837-7.785-8.837c-41.861,0-83.256,0-125.146,0
		c-3.379,0-7.828-0.019-7.828-3.403c0-17.111,0-33.893,0-50.741c0-3.378-1.029-7.057-4.412-7.057c-58.416,0-116.287,0-174.708,0
		c-3.378,0-4.479,3.672-4.479,7.05c0,16.806,0,33.556,0,50.563c0,3.378-4.388,3.586-7.767,3.586c-42.393,0-84.285,0-126.672,0
		c-3.378,0-6.322,5.269-6.322,8.647c0,16.402,0,32.552,0,48.789c0,3.378-2.534,3.764-5.912,3.764c-11.512,0-22.711,0-33.868,0
		c-3.384,0-9.18,5.098-9.18,8.477c0,58.611,0,117.223,0,175.84c0,6.363,4.553,5.648,5.159,5.648
		c43.507-0.012,88.544-0.244,132.045-0.244c0.729,0,1.451,0,2.24,0c1.242,0,1.316,3.205,1.316,6.584c0,17.332,0,34.529,0,51.984
		c0,3.377-1.812,8.75-5.19,8.75c-11.414,0-22.815,0-34.547,0c-3.378,0-3.103,0.111-3.103,3.488c0,18.434,0,36.562,0,54.842
		c0,0-3.06,2.871-1.34,2.871c28.36,0,56.194,0,84.395,0c3.384,0,8.751-3.789,8.751-7.166c0-17.051,0-33.863,0-50.9
		c0-3.379,0.08-6.23,1.799-6.371c1.083-0.086,1.438-0.16,2.454-0.16c12.014-0.035,23.709-0.152,35.716,0.057
		c4.009,0.066,4.278-0.877,4.21-5.283c-0.281-17.49-1.346-34.98-1.346-52.473c0-0.875,0-1.75,0-2.68
		c0-1.482,4.865-3.543,8.244-3.543c27.124,0,54.046,0,81.39,0c3.385,0,8.287,2.092,8.287,3.609c0,0.932,0,1.836,0,2.748
		c0,17.645-0.98,35.289-1.164,52.932c-0.035,3.66,0.594,4.719,4.107,4.67c11.861-0.152,23.465,0.104,35.318-0.141
		c4.223-0.086,5.27,0.93,5.189,5.52c-0.287,16.727-0.611,33.465-0.611,50.191c0,0.875,0,1.75,0,2.686
		c0,1.494,3.471,0.184,6.848,0.184c26.721,0,53.189,0,79.896,0c3.385,0,5.055-0.227,5.055-3.604
		C465.119,441.943,465.119,425.463,465.119,408.578z M232.56,273.185c0,3.378-1.867,5.288-5.245,5.288c-26.45,0-52.693,0-79.205,0
		c-3.378,0-7.344-1.903-7.344-5.288c0-16.273,0-32.528,0-48.972c-0.006-3.378,3.954-6.94,7.338-6.94c26.322,0,52.638,0,79.199,0
		c3.385,0,5.257,3.562,5.257,6.94C232.56,240.517,232.56,256.79,232.56,273.185z M335.73,278.473c-3.377,0-5.25-2.008-5.25-5.392
		c0-16.316,0-32.583,0-48.973c0-3.378,1.865-6.836,5.244-6.836c26.451,0,52.693,0,79.205,0c3.379,0,7.344,3.458,7.344,6.836
		c0,16.279,0,32.534,0,48.979c0,3.378-3.959,5.386-7.344,5.386C388.607,278.473,362.299,278.473,335.73,278.473z"/>
	<path d="M555.721,465.598c-0.906,0.043-1.053,1.334-1.965,1.334c-27.221,0.014-53.684,1.262-80.906,1.262c-0.895,0-1.787,0-2.688,0
		c-1.48,0-5.043,0.238-5.043,3.623c0,16.959,0,33.592,0,50.367c0,3.379,3.777,7.209,5.502,7.209c1.078,0,2.1,0,3.121,0
		c26.709,0,51.887-0.447,78.588-0.404c3.379,0.006,4.59-3.273,4.59-6.652c0-16.916,0-33.83,0-50.752
		C556.92,468.205,557.227,465.525,555.721,465.598z"/>
	<path d="M324.359,410.934c0-3.377,0.246-3.941-3.139-3.941c-26.83,0-53.202,0-79.634,0c-3.378,0-9.027,0.564-9.027,3.947
		c0,16.641,0,33.104,0,49.664c0,3.379,5.643,7.59,9.027,7.59c26.598,0,53.042,0,79.64,0c3.379,0,3.133-4.211,3.133-7.596
		C324.359,443.971,324.359,427.508,324.359,410.934z"/>
</g>
<g>
</g>
<g>
</g>
<g>
</g>
<g>
</g>
<g>
</g>
<g>
</g>
<g>
</g>
<g>
</g>
<g>
</g>
<g>
</g>
<g>
</g>
<g>
</g>
<g>
</g>
<g>
</g>
<g>
</g>
</svg>
