<svg xmlns="http://www.w3.org/2000/svg" width="277.89" height="102.512" viewBox="0 0 277.89 102.512"><path d="M264.92 13.633v75h-252v-75h252m12-12H.92v99h276v-99zM66.76 68.602h-6.714v6.713h-20.3v-6.713H33.03v-6.875h6.875v6.713h19.978V55.176h-20.14v-6.714h-6.713V34.875h6.713v-6.713h20.3v6.713h6.714v6.875h-6.875v-6.713H39.907v13.265h20.14v6.713h6.712v13.587zM98.792 75.315h-6.875V35.037H78.49v-6.875h33.728v6.875H98.792v40.278zM153.94 75.315h-6.875V61.89h-19.977v13.425h-6.876V48.3h6.714V34.876h6.713v-6.713h6.873v6.713h6.714v13.427h6.713v27.013zm-6.875-20.3V48.46h-6.713V35.037h-6.55v13.426h-6.714v6.552h19.977zM199.4 75.315h-6.876v-20.14h-19.978v20.14h-6.875V28.162h27.015v6.713h6.714v13.588h-6.715v6.552h6.714v20.3zM192.523 48.3V35.038h-19.978v13.265h19.978zM231.432 75.315h-6.875V35.037H211.13v-6.875h33.728v6.875h-13.426v40.278z"/></svg>