<svg xmlns="http://www.w3.org/2000/svg" width="184.676" height="114.07" viewBox="0 0 184.676 114.07"><path d="M38.178 45.53v9.514h9.418v19.042h9.422V55.042h9.418V45.53h9.422V26.583h-9.422V36.1H57.02v9.523h-9.422V36.1H38.18v-9.516h-9.424V45.53h9.422zM94.71 74.084h18.835V64.66H94.71v-9.617h9.417v-9.42H94.71v-9.618h18.835v-9.42h-28.26v47.5h9.425zm38.767-28.46h9.427v9.42h-9.427v-9.42zm0-9.62h18.85v-9.42H124.06V45.53h9.416v-9.523zm18.85 38.043V55.14h-9.424v9.523H124.06v9.424h28.266v-.04zM2.236 1.664v98h150.12v-13H15.237v-75h156.12v75.98-.353l-.3 12.373h-.235.01-18.474v12h30.947l-.083-110H2.236z"/></svg>